<svg class="header-iconBasket" xmlns="http://www.w3.org/2000/svg" width="24" height="21.705" viewBox="0 0 24 21.705">
<path fill="none" d="M0 0h16v16H0z"></path>
<path d="M17.684 8.615l-4.779-7.157A1.083 1.083 0 0 0 12 1a1.066 1.066 0 0 0-.905.469L6.316 8.615H1.091A1.094 1.094 0 0 0 0 9.705.919.919 0 0 0 .044 10l2.771 10.113a2.17 2.17 0 0 0 2.095 1.593h14.181a2.192 2.192 0 0 0 2.109-1.593L23.967 10 24 9.705a1.094 1.094 0 0 0-1.091-1.091zm-8.956 0L12 3.815l3.273 4.8z" fill="#3d3c3c"></path>
</svg>